<?xml version="1.0" encoding="utf-8"?>
<!-- Generator: Adobe Illustrator 24.3.0, SVG Export Plug-In . SVG Version: 6.00 Build 0)  -->
<svg version="1.1" id="レイヤー_1" xmlns="http://www.w3.org/2000/svg" xmlns:xlink="http://www.w3.org/1999/xlink" x="0px"
	 y="0px" viewBox="0 0 143.6 24.5" style="enable-background:new 0 0 143.6 24.5;" xml:space="preserve">
<style type="text/css">
	.st0{fill:#00FF00;}
</style>
<g>
	<path class="st0" d="M106.7,6.3c1.4-0.5,2.3-1.4,2.3-2.9v0c0-0.9-0.3-1.5-0.8-2c-0.8-0.8-1.9-1.2-3.7-1.2h-7.2v11.3L92.6,0.2h-4.3
		l-3.8,9.2H80V0.2h-4.3V13h7.2H86h1.5l0.7-1.7h4.5l0.7,1.7h4H98h6.5c3.3,0,4.9-1.5,4.9-3.6v0C109.4,7.7,108.4,6.8,106.7,6.3z
		 M89.3,8.2l1.2-3.1l1.2,3.1H89.3z M101.6,3.4h1.9c0.9,0,1.4,0.3,1.4,0.9v0c0,0.6-0.4,0.9-1.4,0.9h-1.9V3.4z M105.1,8.8
		c0,0.6-0.5,0.9-1.4,0.9h-2.2V7.9h2.2C104.7,7.9,105.1,8.2,105.1,8.8L105.1,8.8z"/>
	<path class="st0" d="M9.8,0.2H9L8.4,3.6H4.6l0.6-3.4H4.4L3.8,3.6H1.5v0.8h2.1L3,8.7H0.8v0.8h2L2.2,13H3l0.6-3.6h3.8L6.8,13h0.8
		l0.6-3.6h2.3V8.7H8.4l0.7-4.2h2.1V3.6h-2L9.8,0.2z M7.5,8.7H3.8l0.7-4.2h3.8L7.5,8.7z"/>
	<path class="st0" d="M18.2,6.1c-3.2-0.6-3.8-1.5-3.8-2.7v0c0-1.3,1.3-2.6,3.4-2.6c1.4,0,2.7,0.5,3.9,1.3l0.2,0.1l0.5-0.7l-0.2-0.1
		c-1.2-1-2.8-1.5-4.3-1.5c-2.4,0-4.3,1.5-4.3,3.4v0c0,1.9,1.2,2.8,4.4,3.5c3.2,0.7,3.9,1.5,3.9,2.7v0c0,1.6-1.5,2.7-3.6,2.7
		c-1.7,0-3.2-0.6-4.5-1.8l-0.2-0.2L13,11l0.2,0.2c1.4,1.3,3.2,2,5.1,2c2.6,0,4.5-1.4,4.5-3.5v0C22.6,7.7,21.4,6.8,18.2,6.1z"/>
	<rect x="28.3" y="0.2" class="st0" width="0.8" height="12.8"/>
	<path class="st0" d="M46.9,3.5c-1.6,0-2.7,0.9-3.3,1.8V3.7h-0.8V13h0.8V7.9c0-2,1.4-3.6,3.3-3.6c2,0,3.1,1.3,3.1,3.5V13h0.8V7.8
		C50.9,5.1,49.4,3.5,46.9,3.5z"/>
	<path class="st0" d="M35.9,3.5c-2.7,0-4.9,2.2-4.9,4.9c0,2.7,2.2,4.9,4.9,4.9c1.9,0,3.6-1.1,4.4-2.8l0.1-0.3h-0.9l-0.1,0.1
		c-0.7,1.4-2.1,2.2-3.6,2.2c-2.1,0-3.8-1.6-4-3.6h8.8l0-0.3c0,0,0-0.1,0-0.1C40.7,5.7,38.6,3.5,35.9,3.5z M31.9,7.9
		c0.2-2.1,1.9-3.6,4-3.6c2.1,0,3.8,1.6,4,3.6H31.9z"/>
	<path class="st0" d="M68,3.5c-2.7,0-4.9,2.2-4.9,4.9c0,2.7,2.2,4.9,4.9,4.9c1.9,0,3.6-1.1,4.4-2.8l0.1-0.3h-0.9l-0.1,0.1
		c-0.7,1.4-2.1,2.2-3.6,2.2c-2.1,0-3.8-1.6-4-3.6h8.8l0-0.3c0,0,0-0.1,0-0.1C72.9,5.7,70.7,3.5,68,3.5z M64,7.9
		c0.2-2.1,1.9-3.6,4-3.6c2.1,0,3.8,1.6,4,3.6H64z"/>
	<path class="st0" d="M57.3,4.3c1.5,0,2.9,0.9,3.6,2.2l0.1,0.1h0.9l-0.1-0.3c-0.8-1.7-2.5-2.8-4.4-2.8c-2.7,0-4.9,2.2-4.9,4.9
		c0,2.7,2.2,4.9,4.9,4.9c1.9,0,3.6-1.1,4.4-2.8l0.1-0.3h-0.9l-0.1,0.1c-0.7,1.4-2.1,2.2-3.6,2.2c-2.2,0-4-1.8-4-4
		C53.2,6.1,55,4.3,57.3,4.3z"/>
	<rect x="24.8" y="3.7" class="st0" width="0.8" height="9.3"/>
	<path class="st0" d="M25.2,0c-0.3,0-0.6,0.3-0.6,0.6c0,0.3,0.3,0.6,0.6,0.6c0.3,0,0.6-0.3,0.6-0.6C25.8,0.3,25.5,0,25.2,0z"/>
</g>
<g id="レイヤー_1-2">
	<path class="st0" d="M142.5,24.4h0.8l0.3-1h-0.8L142.5,24.4z M139.9,24.4h0.7l1.7-6.3h-0.7L139.9,24.4z M138,22.6L138,22.6
		c-0.3,0.8-1,1.2-1.9,1.1H134l0.6-2.2h2C137.7,21.5,138.2,21.9,138,22.6 M138.4,19.8c-0.2,0.7-1,1.2-1.8,1.1h-1.9l0.6-2.2h1.9
		C138.2,18.7,138.6,19.1,138.4,19.8L138.4,19.8z M133.1,24.4h2.8c1.2,0.1,2.3-0.6,2.7-1.7l0,0c0.2-0.9-0.3-1.3-1-1.5
		c0.7-0.2,1.2-0.8,1.4-1.5l0,0c0.1-0.3,0.1-0.7-0.1-1c-0.4-0.4-0.9-0.6-1.5-0.6h-2.7L133.1,24.4z M127.7,22.1l2.3-3.2l0.6,3.2
		L127.7,22.1z M125.4,24.4h0.7l1.2-1.7h3.4l0.3,1.7h0.8l-1.2-6.4h-0.7L125.4,24.4z M122.2,24.5c1.2,0.1,2.3-0.7,2.6-1.8l0,0
		c0.3-1-0.2-1.5-1.6-1.8s-1.6-0.6-1.4-1.2l0,0c0.3-0.7,0.9-1.1,1.6-1c0.6,0,1.2,0.2,1.6,0.7l0.6-0.5c-1.1-1.1-2.9-1-4,0.1
		c-0.2,0.2-0.4,0.5-0.5,0.8l0,0c-0.3,1,0.3,1.5,1.6,1.8s1.5,0.6,1.3,1.2l0,0c-0.3,0.7-1,1.1-1.7,1.1c-0.7,0-1.5-0.3-1.9-0.9
		l-0.6,0.5C120.5,24.2,121.3,24.6,122.2,24.5 M116.8,22.1h2.5l0.2-0.7H117L116.8,22.1z M113.7,24.4h0.7l1.7-6.3h-0.7L113.7,24.4z
		 M111.8,22.6L111.8,22.6c-0.3,0.8-1,1.2-1.8,1.1h-2.1l0.6-2.2h2C111.5,21.5,112,21.9,111.8,22.6 M112.2,19.8
		c-0.2,0.7-1,1.2-1.8,1.1h-1.9l0.6-2.2h1.9C112,18.8,112.4,19.2,112.2,19.8L112.2,19.8z M106.9,24.4h2.8c1.2,0.1,2.3-0.6,2.7-1.7
		l0,0c0.2-0.9-0.3-1.3-1-1.5c0.7-0.2,1.2-0.8,1.4-1.5l0,0c0.1-0.3,0.1-0.7-0.1-1c-0.4-0.4-0.9-0.6-1.5-0.6h-2.7L106.9,24.4z
		 M101.5,22.1l2.3-3.2l0.6,3.2L101.5,22.1z M99.2,24.4h0.7l1.2-1.7h3.4l0.3,1.7h0.8l-1.2-6.4h-0.7L99.2,24.4z M91.9,24.4h0.6
		l3.1-5.1l0.4,5.2h0.6l4-6.3h-0.7l-3.2,5.2l-0.3-5.3h-0.6l-3.1,5.3l-0.4-5.2h-0.8L91.9,24.4z M86.7,24.4v-6.3h-1.5l-1.7,2.7
		l-1.7-2.7h-1.5v6.3h1.4v-4.1l1.8,2.7l0,0l1.8-2.7v4.1H86.7z M77.5,21.3c0.1,1-0.7,1.9-1.8,2c0,0-0.1,0-0.1,0
		c-1.1,0-1.9-0.9-1.9-1.9c0,0,0-0.1,0-0.1l0,0c-0.1-1,0.7-1.9,1.8-2c0,0,0.1,0,0.1,0C76.7,19.3,77.5,20.2,77.5,21.3
		C77.5,21.2,77.5,21.3,77.5,21.3z M78.9,21.3L78.9,21.3c-0.1-1.8-1.7-3.3-3.5-3.2c-1.7,0.1-3.1,1.5-3.2,3.2l0,0
		c0.1,1.8,1.7,3.3,3.5,3.2C77.5,24.4,78.9,23,78.9,21.3 M69.8,20.3c0,0.5-0.4,0.9-1.1,0.9h-1.4v-1.8h1.4
		C69.4,19.4,69.8,19.7,69.8,20.3L69.8,20.3z M71.4,24.4l-1.5-2.2c0.8-0.3,1.4-1.1,1.3-2l0,0c0-1.3-0.9-2.1-2.4-2.1h-2.9v6.3h1.4v-2
		h1.1l1.3,2L71.4,24.4z M64.7,19.4v-1.3h-4.8v6.3h1.4V22h3v-1.3h-3v-1.3L64.7,19.4z M54.5,21.3c0,1-0.7,1.8-1.7,1.9
		c-0.1,0-0.1,0-0.2,0h-1.1v-3.8h1.1c1-0.1,1.8,0.7,1.9,1.7C54.5,21.1,54.5,21.2,54.5,21.3L54.5,21.3z M56,21.3L56,21.3
		c0-1.7-1.4-3.1-3.1-3.1c-0.1,0-0.1,0-0.2,0h-2.5v6.3h2.5c1.7,0.1,3.3-1.2,3.4-2.9C56,21.4,56,21.4,56,21.3 M48.5,24.4v-6.3h-1.4V22
		l-3-3.9h-1.2v6.3h1.4v-4l3,4L48.5,24.4z M41.2,21.7v-3.5h-1.4v3.6c0,1-0.5,1.5-1.4,1.5s-1.4-0.5-1.4-1.6v-3.6h-1.4v3.6
		c-0.2,1.4,0.8,2.6,2.2,2.8c0.2,0,0.4,0,0.5,0c1.4,0.1,2.6-0.9,2.8-2.3C41.2,22,41.2,21.9,41.2,21.7 M32.9,21.3c0.1,1-0.7,1.9-1.8,2
		c0,0-0.1,0-0.1,0c-1.1,0-1.9-0.9-1.9-1.9c0,0,0-0.1,0-0.1l0,0c-0.1-1,0.7-1.9,1.8-2c0,0,0.1,0,0.1,0C32.1,19.3,32.9,20.1,32.9,21.3
		C32.9,21.2,32.9,21.3,32.9,21.3z M34.4,21.3L34.4,21.3c0-1.9-1.5-3.4-3.4-3.4c-1.9,0-3.4,1.5-3.4,3.4l0,0c0,1.8,1.4,3.2,3.2,3.2
		c0,0,0.1,0,0.1,0C32.8,24.6,34.3,23.2,34.4,21.3C34.4,21.3,34.4,21.3,34.4,21.3 M26.7,22.6L26.7,22.6c0-1.1-0.7-1.6-2-1.9
		c-1.1-0.3-1.4-0.4-1.4-0.8l0,0c0-0.3,0.3-0.5,0.8-0.5c0.6,0,1.2,0.3,1.6,0.6l0.7-1c-0.7-0.5-1.5-0.8-2.3-0.8
		c-1.1-0.1-2,0.7-2.1,1.8l0,0c0,1.3,0.8,1.6,2.1,1.9c1,0.3,1.3,0.5,1.3,0.8l0,0c0,0.4-0.3,0.6-0.9,0.6c-0.7,0-1.4-0.3-1.9-0.8
		l-0.8,1c0.7,0.6,1.7,1,2.7,1C25.8,24.5,26.7,23.8,26.7,22.6 M18.2,24.4v-1.2h-3.4v-1.3h3v-1.2h-3v-1.3h3.4v-1.2h-4.7v6.3L18.2,24.4
		z M11.7,24.4v-6.3h-1.4v2.5H7.7v-2.5H6.3v6.3h1.4v-2.5h2.6v2.5H11.7z M5.2,19.4v-1.3H0v1.3h1.9v5h1.4v-5L5.2,19.4z"/>
</g>
</svg>
