<svg xmlns="http://www.w3.org/2000/svg" viewBox="0 0 95.73 95.73"><defs><style>.cls-1{fill:#00fe02;}</style></defs><g id="レイヤー_2" data-name="レイヤー 2"><g id="レイヤー_1-2" data-name="レイヤー 1"><path class="cls-1" d="M47.86,8.62c12.79,0,14.3.05,19.35.28a26.74,26.74,0,0,1,8.88,1.65,14.93,14.93,0,0,1,5.51,3.58,14.93,14.93,0,0,1,3.58,5.51,26.74,26.74,0,0,1,1.65,8.88c.23,5.05.28,6.56.28,19.34s0,14.3-.28,19.35a26.74,26.74,0,0,1-1.65,8.88,15.82,15.82,0,0,1-9.09,9.09,26.74,26.74,0,0,1-8.88,1.65c-5,.23-6.56.28-19.35.28s-14.29,0-19.34-.28a26.74,26.74,0,0,1-8.88-1.65,14.93,14.93,0,0,1-5.51-3.58,14.93,14.93,0,0,1-3.58-5.51A26.74,26.74,0,0,1,8.9,67.21c-.23-5-.28-6.56-.28-19.35s.05-14.29.28-19.34a26.74,26.74,0,0,1,1.65-8.88,14.93,14.93,0,0,1,3.58-5.51,14.93,14.93,0,0,1,5.51-3.58A26.74,26.74,0,0,1,28.52,8.9c5.05-.23,6.56-.28,19.34-.28m0-8.62c-13,0-14.62.06-19.73.29A35.23,35.23,0,0,0,16.51,2.51,23.54,23.54,0,0,0,8,8a23.54,23.54,0,0,0-5.52,8.48A35.23,35.23,0,0,0,.29,28.13C.06,33.24,0,34.87,0,47.86S.06,62.49.29,67.6A35.23,35.23,0,0,0,2.51,79.22,23.54,23.54,0,0,0,8,87.7a23.54,23.54,0,0,0,8.48,5.52,35.23,35.23,0,0,0,11.62,2.22c5.11.23,6.74.29,19.73.29s14.63-.06,19.74-.29a35.23,35.23,0,0,0,11.62-2.22,24.46,24.46,0,0,0,14-14A35.23,35.23,0,0,0,95.44,67.6c.23-5.11.29-6.74.29-19.74s-.06-14.62-.29-19.73a35.23,35.23,0,0,0-2.22-11.62A23.54,23.54,0,0,0,87.7,8a23.54,23.54,0,0,0-8.48-5.52A35.23,35.23,0,0,0,67.6.29C62.49.06,60.86,0,47.86,0Z"/><path class="cls-1" d="M47.86,23.29A24.58,24.58,0,1,0,72.44,47.86,24.57,24.57,0,0,0,47.86,23.29Zm0,40.53a16,16,0,1,1,16-16A16,16,0,0,1,47.86,63.82Z"/><circle class="cls-1" cx="73.42" cy="22.31" r="5.74"/></g></g></svg>