<svg xmlns="http://www.w3.org/2000/svg" viewBox="0 0 8.45 218"><defs><style>.cls-1{fill:lime;}</style></defs><g id="レイヤー_2" data-name="レイヤー 2"><g id="レイヤー_1-2" data-name="レイヤー 1"><path class="cls-1" d="M2.65,218v-.7l-1-.18v.7Zm1.78-5.87a2.3,2.3,0,0,1,1.65,2.18,1.49,1.49,0,0,1-1.65,1.56Zm-.53,4.3A2.22,2.22,0,0,0,6,216.05a2.12,2.12,0,0,0,.68-1.65,3.16,3.16,0,0,0-2.56-3,2,2,0,0,0-2.55,2.08,2.83,2.83,0,0,0,.4,1.45,3.35,3.35,0,0,0,1.17,1.2v-.69a2.23,2.23,0,0,1-1-1.86A1.48,1.48,0,0,1,3.9,212Zm-.6-6.6a2.29,2.29,0,0,1-1.15-2,1.53,1.53,0,0,1,1.93-1.55,2.44,2.44,0,0,1,1.4.81A2.17,2.17,0,0,1,6,208.59a1.48,1.48,0,0,1-1.2,1.53v.68a2,2,0,0,0,1.81-2.13,3.13,3.13,0,0,0-2.56-3,2,2,0,0,0-2.55,2.12,3.19,3.19,0,0,0,1.77,2.76ZM1.66,199.68v.67l2.74.5A1.84,1.84,0,0,1,6,202.73c0,1.09-.69,1.43-1.74,1.24l-2.62-.49v.66l2.76.51c1.18.22,2.2-.13,2.22-1.63a2.24,2.24,0,0,0-1-2l.87.17v-.63Zm2.77-5a2.32,2.32,0,0,1,1.65,2.19,1.5,1.5,0,0,1-1.65,1.56ZM3.9,199A2.21,2.21,0,0,0,6,198.63,2.13,2.13,0,0,0,6.64,197a3.18,3.18,0,0,0-2.56-3A2,2,0,0,0,1.53,196a2.81,2.81,0,0,0,.4,1.45A3.37,3.37,0,0,0,3.1,198.7V198a2.24,2.24,0,0,1-1-1.86,1.49,1.49,0,0,1,1.79-1.56Zm-2.24-7.19v.67l6.66,1.23V193Zm0-2.1v.66l4.85.9v-.66Zm5.74,1.06v.66l.92.18v-.67Zm-2.11-1.7a1.12,1.12,0,0,0,1.35-1.24,1.73,1.73,0,0,0-1.38-1.76c-.77-.13-1,.36-1.26,1s-.46,1.11-1,1a1.11,1.11,0,0,1-.91-1.1.78.78,0,0,1,1-.83v-.66a1.26,1.26,0,0,0-1.51,1.38,1.89,1.89,0,0,0,1.54,1.89c1,.15,1.23-.59,1.42-1.24s.36-.87.82-.81a1,1,0,0,1,.78,1,.62.62,0,0,1-.8.68ZM1.66,177.22v.67l2.74.5A1.85,1.85,0,0,1,6,180.28c0,1.08-.69,1.42-1.74,1.23L1.66,181v.66l2.76.51c1.18.22,2.2-.12,2.22-1.63a2.24,2.24,0,0,0-1-2c.33.08.6.12.87.17v-.63Zm0-2.1v.67l4.85.9V176Zm5.74,1.06v.67l.92.17v-.67Zm-3.31-9A2.38,2.38,0,0,1,6,169.48,1.54,1.54,0,0,1,4.11,171a2.29,2.29,0,0,1-1.39-.79,2.32,2.32,0,0,1-.57-1.48,1.53,1.53,0,0,1,1.93-1.59Zm4.23,5.27v-.67l-1.77-.32-1-.19a1.73,1.73,0,0,0,1.11-1.78,3.07,3.07,0,0,0-2.55-3,2,2,0,0,0-2.56,2,2.65,2.65,0,0,0,1.13,2.21l-1-.18v.63Zm-6.66-11.9v.67l2.74.5A1.84,1.84,0,0,1,6,163.6c0,1.09-.69,1.42-1.74,1.24l-2.62-.49V165l2.76.51c1.18.21,2.2-.13,2.22-1.63a2.24,2.24,0,0,0-1-2l.87.17v-.63ZM6.51,160v-.67l-2.74-.51A1.82,1.82,0,0,1,2.15,157c0-1.09.69-1.43,1.74-1.23l2.62.48v-.66L3.76,155c-1.18-.21-2.2.13-2.23,1.63a2.24,2.24,0,0,0,1,2l-.87-.16v.63ZM4.08,149.58A2.38,2.38,0,0,1,6,151.85a1.53,1.53,0,0,1-1.94,1.55,2.37,2.37,0,0,1-1.93-2.27,1.53,1.53,0,0,1,1.93-1.55Zm0-.65A2,2,0,0,0,1.54,151a3.14,3.14,0,0,0,2.54,3.05A2,2,0,0,0,6.64,152a3.14,3.14,0,0,0-2.55-3Zm-2.42-2.49v.66l4.32.8v1l.53.1v-1l.33.07a1.13,1.13,0,0,1,1.07,1.24l.53.1a1.78,1.78,0,0,0-1.54-2l-.39-.08v-.71l-.53-.1v.71ZM0,138.69v1.58L6.66,144v-1.58l-2.9-1.49,2.9-.48v-1.59l-4.74,1Zm1.66-3.18V137l3.87.72v.72l1.13.21v-.72l1.66.3v-1.49l-1.66-.31v-.74l-1.13-.2v.74Zm5-.64v-1.5l-2.72-.5c-.51-.1-1-.32-1-1.06s.48-.71,1-.6l2.73.51v-1.5l-3.12-.57c-.68-.13-2-.22-2,1.47a1.85,1.85,0,0,0,.7,1.52l-.53-.1v1.4ZM4.15,124.53A1.56,1.56,0,0,1,5.44,126a.93.93,0,0,1-.7,1,1.14,1.14,0,0,1-.66,0,1.64,1.64,0,0,1-.63-.32,1.43,1.43,0,0,1-.56-1.15,1,1,0,0,1,1.25-1ZM6.66,129v-1.49l-.53-.1a1.38,1.38,0,0,0,.7-1.35,3.15,3.15,0,0,0-2.66-3c-1.44-.27-2.68.42-2.68,2a2,2,0,0,0,.71,1.61l-.54-.1v1.5ZM4.78,118.72A1.35,1.35,0,0,1,5.57,120a.86.86,0,0,1-.79,1Zm-1.14,3.49A2.54,2.54,0,0,0,6,122a2.13,2.13,0,0,0,.79-1.75,3.35,3.35,0,0,0-2.68-3.11,2.15,2.15,0,0,0-2.65,2.16,2.88,2.88,0,0,0,.45,1.5A3.74,3.74,0,0,0,3.23,122v-1.53a1.21,1.21,0,0,1-.47-1c0-.58.35-1,.88-1Zm.53-7.3a1.57,1.57,0,0,1-1.28-1.49,1,1,0,0,1,1.28-1,1.54,1.54,0,0,1,1.27,1.47,1,1,0,0,1-1.27,1Zm-2.51-4.37V112l.53.1a1.36,1.36,0,0,0-.7,1.31,3.15,3.15,0,0,0,2.7,3,2,2,0,0,0,2.64-2,2.25,2.25,0,0,0-.57-1.55l.38.06,1.68.32v-1.5Zm0-5.55v1.49l3.87.72v.63l1.13.21v-.63l.19,0c.48.09.48.44.48.72l1.12.21c0-1.05-.13-2.15-1.58-2.42l-.21,0v-.55l-1.13-.21v.56Zm2.51-4.52a1.51,1.51,0,0,1,1.26,1.42,1,1,0,0,1-1.26,1,1.52,1.52,0,0,1-1.26-1.43,1,1,0,0,1,1.25-1Zm0-1.5a2.12,2.12,0,0,0-2.66,2.2,3.27,3.27,0,0,0,2.66,3.18,2.11,2.11,0,0,0,2.65-2.2A3.27,3.27,0,0,0,4.17,99Zm.61-7a1.36,1.36,0,0,1,.79,1.26.85.85,0,0,1-.79,1ZM3.64,95.45A2.51,2.51,0,0,0,6,95.19a2.13,2.13,0,0,0,.79-1.74,3.36,3.36,0,0,0-2.68-3.12A2.15,2.15,0,0,0,1.5,92.49,2.89,2.89,0,0,0,2,94a3.93,3.93,0,0,0,1.28,1.25V93.72a1.24,1.24,0,0,1-.47-1c0-.59.35-1,.88-1Zm1.62-5.7c1.31.12,1.57-1,1.57-1.63a2.22,2.22,0,0,0-1.69-2.24c-.68-.13-1.1.33-1.31.94-.37.89-.41,1.25-.75,1.18s-.39-.34-.39-.59a.43.43,0,0,1,.46-.48V85.45c-1.31-.11-1.66,1-1.66,1.72a2.27,2.27,0,0,0,1.75,2.35c1.08.21,1.33-.64,1.57-1.44.11-.38.27-.72.49-.68a.46.46,0,0,1,.33.49c0,.44-.27.4-.37.39ZM1.66,79.62v1.5l2.72.5c.52.1,1,.31,1,1s-.49.69-1,.59l-2.73-.5v1.49l3.13.58c.67.12,2,.2,2-1.48a1.82,1.82,0,0,0-.7-1.5l.53.1v-1.4Zm3.12-4.13a1.36,1.36,0,0,1,.79,1.26.86.86,0,0,1-.79,1ZM3.64,79A2.54,2.54,0,0,0,6,78.72,2.13,2.13,0,0,0,6.83,77a3.35,3.35,0,0,0-2.68-3.12A2.15,2.15,0,0,0,1.5,76,2.85,2.85,0,0,0,2,77.52a3.74,3.74,0,0,0,1.28,1.25V77.25a1.25,1.25,0,0,1-.47-1c0-.58.35-1,.88-1Zm1.62-5.7c1.31.11,1.57-1,1.57-1.63a2.22,2.22,0,0,0-1.69-2.24c-.68-.13-1.1.33-1.31.94-.37.88-.41,1.24-.75,1.18s-.39-.34-.39-.59a.42.42,0,0,1,.46-.48V69c-1.31-.11-1.66,1-1.66,1.71a2.29,2.29,0,0,0,1.75,2.36c1.08.21,1.33-.65,1.57-1.45.11-.37.27-.72.49-.67a.45.45,0,0,1,.33.48c0,.45-.27.41-.37.4ZM4.15,61.62A1.56,1.56,0,0,1,5.44,63.1a1,1,0,0,1-.7,1,1.33,1.33,0,0,1-.66,0,1.82,1.82,0,0,1-.63-.33,1.43,1.43,0,0,1-.56-1.15,1,1,0,0,1,1.25-1Zm2.51,4.46v-1.5l-.53-.1a1.38,1.38,0,0,0,.7-1.35,3.15,3.15,0,0,0-2.66-3c-1.44-.27-2.68.42-2.68,2a2.06,2.06,0,0,0,.71,1.62l-.54-.1v1.49ZM3.19,56.24V54.68L1.66,54.4V56Zm3.47.64V55.32L5.13,55v1.56ZM1.49,48.55v.71L7.78,51v-.71Zm1.78-1.93h0a1.74,1.74,0,0,1-1.13-1.85V42.65l2.23.59v2c0,1.1-.4,1.57-1.08,1.39M6.1,47A1.66,1.66,0,0,1,5,45.27V43.41L7.15,44v1.92c0,.9-.41,1.29-1,1.12ZM1.49,41.77v2.8A2.61,2.61,0,0,0,3.2,47.32h0c.87.23,1.3-.25,1.52-.94A2.19,2.19,0,0,0,6.2,47.77h0a1.19,1.19,0,0,0,1-.14,1.8,1.8,0,0,0,.55-1.5V43.46Zm2.31-5.4L7,38.67l-3.2.57ZM1.49,34v.73l1.66,1.19v3.43l-1.66.29v.76l6.34-1.17v-.66Zm-.1-3.13A2.61,2.61,0,0,0,3.18,33.5h0c1,.25,1.48-.26,1.79-1.58s.63-1.54,1.22-1.38h0a1.61,1.61,0,0,1,1,1.62,2.11,2.11,0,0,1-.69,1.63l.55.56a2.82,2.82,0,0,0-.94-4.53h0c-1-.27-1.51.27-1.82,1.63s-.61,1.48-1.2,1.32h0A1.65,1.65,0,0,1,2,31.07a2.29,2.29,0,0,1,.89-1.92l-.52-.58a2.83,2.83,0,0,0-1,2.3m2.44-5.42V28l.72.2V25.64Zm-2.34-3.1v.71l6.29,1.69V24Zm1.78-1.93h0a1.74,1.74,0,0,1-1.13-1.85V16.45L4.35,17v2c0,1.1-.4,1.57-1.08,1.39m2.83.4A1.64,1.64,0,0,1,5,19.07V17.21l2.17.58v1.92c0,.9-.41,1.29-1,1.12ZM1.49,15.57v2.8A2.61,2.61,0,0,0,3.2,21.12h0c.87.23,1.3-.25,1.52-.94A2.19,2.19,0,0,0,6.2,21.57h0a1.15,1.15,0,0,0,1-.13,1.8,1.8,0,0,0,.55-1.5V17.26Zm2.31-5.4L7,12.47,3.8,13ZM1.49,7.8v.72l1.66,1.2v3.43l-1.66.29v.76L7.83,13v-.66ZM1.44.55v.59L6.55,4.25l-5.11.36v.6l6.34,4V8.41L2.54,5.21,7.8,4.89V4.31L2.54,1.17,7.78.77V0Z"/></g></g></svg>