<?xml version="1.0" encoding="utf-8"?>
<!-- Generator: Adobe Illustrator 24.3.0, SVG Export Plug-In . SVG Version: 6.00 Build 0)  -->
<svg version="1.1" id="レイヤー_1" xmlns="http://www.w3.org/2000/svg" xmlns:xlink="http://www.w3.org/1999/xlink" x="0px"
	 y="0px" viewBox="0 0 78.8 67.4" style="enable-background:new 0 0 78.8 67.4;" xml:space="preserve">
<style type="text/css">
	.st0{fill:#231815;}
</style>
<g>
	<path class="st0" d="M1.8,7.4h1.8V5.6h1.9V1.8h1.8v3.8H5.6v15H3.7V9.4H1.8V7.4z M9.4,3.8h3.8V1.8H15v1.8h5.6v3.8h-1.8v1.8H15v1.9
		h5.6v1.8H15v5.6h3.8v-3.8h1.8v5.6h-7.4v-5.6H7.5v-1.8h5.6v-1.8H9.4V9.4H15V7.4h3.8V5.6h-7.5v1.8H9.4V3.8z M0,22.4h22.4V0H0V22.4z"
		/>
	<g>
		<rect x="15" y="34" class="st0" width="1.8" height="5.6"/>
		<polygon class="st0" points="13,41.5 13,41.5 15,41.5 15,39.7 13,39.7 		"/>
		<polygon class="st0" points="18.6,32.1 18.6,30.3 9.4,30.3 9.4,32.1 11.2,32.1 11.2,34 9.4,34 9.4,35.9 11.2,35.9 11.2,37.7 
			9.4,37.7 9.4,39.7 13,39.7 13,32.1 13,32.1 		"/>
		<path class="st0" d="M18.6,43.3h1.8v1.8h-1.8V43.3z M1.8,28.4h9.4v-1.8H13v1.8h7.4V34h-1.8v5.6h-1.8v1.8h1.8v1.8h-1.8v-1.8H15v1.8
			h-1.8v1.8h-1.9v-3.8H9.4v3.8H5.6v-1.8h1.8v-5.6H5.6v3.8H3.7v1.8H1.8v-1.8h1.8v-3.8H1.8v-1.8h5.6v-5.6H3.7V34H1.8V28.4z M0,47.1
			h22.4V24.7H0V47.1z"/>
	</g>
</g>
<g>
	<path class="st0" d="M58.6,57.4c0.8-0.3,1.3-0.8,1.3-1.6l0,0c0-0.5-0.2-0.8-0.4-1.1c-0.4-0.4-1-0.7-2-0.7h-4v6.2L50.9,54h-2.4
		l-2.1,5h-2.5v-5h-2.4v7h4h1.7H48l0.4-0.9h2.5l0.4,0.9h2.2h0.3h3.6c1.8,0,2.7-0.8,2.7-2l0,0C60,58.2,59.5,57.7,58.6,57.4z M49,58.4
		l0.7-1.7l0.7,1.7H49z M55.8,55.8h1c0.5,0,0.8,0.2,0.8,0.5l0,0c0,0.3-0.2,0.5-0.8,0.5h-1V55.8z M57.7,58.8c0,0.3-0.3,0.5-0.8,0.5
		h-1.2v-1h1.2C57.5,58.3,57.7,58.4,57.7,58.8L57.7,58.8z"/>
	<path class="st0" d="M5.4,54.1H4.9L4.6,56H2.5l0.3-1.9H2.4L2.1,56H0.8v0.4H2l-0.3,2.4H0.4v0.4h1.1l-0.3,1.9h0.4l0.3-2H4l-0.3,2h0.4
		l0.3-2h1.3v-0.4H4.6L5,56.4h1.2v-0.5H5L5.4,54.1z M4.1,58.7h-2l0.4-2.3h2.1L4.1,58.7z"/>
	<path class="st0" d="M10,57.3c-1.8-0.3-2.1-0.8-2.1-1.5l0,0c0-0.7,0.7-1.4,1.9-1.4c0.8,0,1.5,0.3,2.1,0.7l0.1,0.1l0.3-0.4l-0.1-0.1
		c-0.7-0.5-1.5-0.8-2.4-0.8c-1.3,0-2.4,0.8-2.4,1.9l0,0c0,1,0.7,1.5,2.4,1.9s2.1,0.8,2.1,1.5l0,0c0,0.9-0.8,1.5-2,1.5
		c-0.9,0-1.8-0.3-2.5-1l-0.1-0.1L7,60l0.1,0.1C8,60.8,9,61.2,10,61.2c1.4,0,2.5-0.8,2.5-1.9l0,0C12.4,58.2,11.7,57.7,10,57.3z"/>
	<rect x="15.5" y="54.1" class="st0" width="0.4" height="7"/>
	<path class="st0" d="M25.7,55.9c-0.9,0-1.5,0.5-1.8,1V56h-0.4v5.1h0.4v-2.8c0-1.1,0.8-2,1.8-2c1.1,0,1.7,0.7,1.7,1.9v2.9h0.4v-2.9
		C27.9,56.7,27.1,55.9,25.7,55.9z"/>
	<path class="st0" d="M19.7,55.9c-1.5,0-2.7,1.2-2.7,2.7s1.2,2.7,2.7,2.7c1,0,2-0.6,2.4-1.5l0.1-0.2h-0.5h-0.1
		c-0.4,0.8-1.2,1.2-2,1.2c-1.2,0-2.1-0.9-2.2-2h4.8v-0.2l0,0C22.3,57.1,21.2,55.9,19.7,55.9z M17.5,58.3c0.1-1.2,1-2,2.2-2
		s2.1,0.9,2.2,2H17.5z"/>
	<path class="st0" d="M37.3,55.9c-1.5,0-2.7,1.2-2.7,2.7s1.2,2.7,2.7,2.7c1,0,2-0.6,2.4-1.5l0.1-0.2h-0.5h-0.1
		c-0.4,0.8-1.2,1.2-2,1.2c-1.2,0-2.1-0.9-2.2-2h4.8v-0.2l0,0C40,57.1,38.8,55.9,37.3,55.9z M35.1,58.3c0.1-1.2,1-2,2.2-2
		s2.1,0.9,2.2,2H35.1z"/>
	<path class="st0" d="M31.4,56.3c0.8,0,1.6,0.5,2,1.2l0.1,0.1H34l-0.1-0.2c-0.4-0.9-1.4-1.5-2.4-1.5c-1.5,0-2.7,1.2-2.7,2.7
		s1.2,2.7,2.7,2.7c1,0,2-0.6,2.4-1.5l0.1-0.2h-0.5l-0.1,0c-0.4,0.8-1.2,1.2-2,1.2c-1.2,0-2.2-1-2.2-2.2
		C29.2,57.3,30.2,56.3,31.4,56.3z"/>
	<rect x="13.6" y="56" class="st0" width="0.4" height="5.1"/>
	<path class="st0" d="M13.8,53.9c-0.2,0-0.3,0.2-0.3,0.3c0,0.2,0.2,0.3,0.3,0.3c0.2,0,0.3-0.2,0.3-0.3C14.2,54.1,14,53.9,13.8,53.9z
		"/>
</g>
<g id="レイヤー_1-2_1_">
	<path class="st0" d="M78.2,67.3h0.4l0.2-0.5h-0.4L78.2,67.3z M76.8,67.3h0.4l0.9-3.5h-0.4L76.8,67.3z M75.7,66.3L75.7,66.3
		c-0.2,0.4-0.5,0.7-1,0.6h-1.2l0.3-1.2H75C75.6,65.7,75.8,66,75.7,66.3 M75.9,64.8c-0.1,0.4-0.5,0.7-1,0.6h-1l0.3-1.2h1
		C75.8,64.2,76.1,64.4,75.9,64.8L75.9,64.8z M73,67.3h1.5c0.7,0.1,1.3-0.3,1.5-0.9l0,0c0.1-0.5-0.2-0.7-0.5-0.8
		c0.4-0.1,0.7-0.4,0.8-0.8l0,0c0.1-0.2,0.1-0.4-0.1-0.5C76,64.1,75.7,64,75.4,64h-1.5L73,67.3z M70.1,66.1l1.3-1.8l0.3,1.8H70.1z
		 M68.8,67.3h0.4l0.7-0.9h1.9l0.2,0.9h0.4l-0.7-3.5h-0.4L68.8,67.3z M67.1,67.4c0.7,0.1,1.3-0.4,1.4-1l0,0c0.2-0.5-0.1-0.8-0.9-1
		s-0.9-0.3-0.8-0.7l0,0c0.2-0.4,0.5-0.6,0.9-0.5c0.3,0,0.7,0.1,0.9,0.4l0.3-0.3c-0.6-0.6-1.6-0.5-2.2,0.1c-0.1,0.1-0.2,0.3-0.3,0.4
		l0,0c-0.2,0.5,0.2,0.8,0.9,1c0.7,0.2,0.8,0.3,0.7,0.7l0,0c-0.2,0.4-0.5,0.6-0.9,0.6s-0.8-0.2-1-0.5l-0.3,0.3
		C66.1,67.2,66.6,67.4,67.1,67.4 M64.1,66.1h1.4l0.1-0.4h-1.4L64.1,66.1z M62.4,67.3h0.4l0.9-3.5h-0.4L62.4,67.3z M61.3,66.3
		L61.3,66.3c-0.2,0.4-0.5,0.7-1,0.6h-1.2l0.3-1.2h1.1C61.2,65.7,61.5,66,61.3,66.3 M61.6,64.8c-0.1,0.4-0.5,0.7-1,0.6h-1l0.3-1.2h1
		C61.5,64.3,61.7,64.5,61.6,64.8L61.6,64.8z M58.7,67.3h1.5c0.7,0.1,1.3-0.3,1.5-0.9l0,0c0.1-0.5-0.2-0.7-0.5-0.8
		c0.4-0.1,0.7-0.4,0.8-0.8l0,0c0.1-0.2,0.1-0.4-0.1-0.5c-0.2-0.2-0.5-0.3-0.8-0.3h-1.5L58.7,67.3z M55.7,66.1l1.3-1.8l0.3,1.8H55.7z
		 M54.4,67.3h0.4l0.7-0.9h1.9l0.2,0.9H58l-0.7-3.5h-0.4L54.4,67.3z M50.4,67.3h0.3l1.7-2.8l0.2,2.9H53l2.2-3.5h-0.4L53,66.8
		l-0.2-2.9h-0.3l-1.7,2.9l-0.2-2.9h-0.4L50.4,67.3z M47.6,67.3v-3.5h-0.8l-0.9,1.5L45,63.8h-0.8v3.5H45v-2.2l1,1.5l0,0l1-1.5v2.2
		C46.8,67.3,47.6,67.3,47.6,67.3z M42.5,65.6c0.1,0.5-0.4,1-1,1.1h-0.1c-0.6,0-1-0.5-1-1v-0.1l0,0c-0.1-0.5,0.4-1,1-1.1h0.1
		C42.1,64.5,42.5,65,42.5,65.6L42.5,65.6z M43.3,65.6L43.3,65.6c-0.1-1-0.9-1.8-1.9-1.8c-0.9,0.1-1.7,0.8-1.8,1.8l0,0
		c0.1,1,0.9,1.8,1.9,1.8C42.5,67.3,43.3,66.6,43.3,65.6 M38.3,65.1c0,0.3-0.2,0.5-0.6,0.5h-0.8v-1h0.8
		C38.1,64.6,38.3,64.8,38.3,65.1L38.3,65.1z M39.2,67.3l-0.8-1.2c0.4-0.2,0.8-0.6,0.7-1.1l0,0c0-0.7-0.5-1.2-1.3-1.2h-1.6v3.5H37
		v-1.1h0.6l0.7,1.1C38.3,67.3,39.2,67.3,39.2,67.3z M35.5,64.6v-0.7h-2.6v3.5h0.8v-1.3h1.6v-0.7h-1.6v-0.8H35.5z M29.9,65.6
		c0,0.5-0.4,1-0.9,1c-0.1,0-0.1,0-0.1,0h-0.6v-2h0.6C29.4,64.5,29.9,65,29.9,65.6L29.9,65.6L29.9,65.6z M30.7,65.6L30.7,65.6
		c0-0.9-0.8-1.7-1.7-1.7c-0.1,0-0.1,0-0.1,0h-1.4v3.5h1.4c0.9,0.1,1.8-0.7,1.9-1.6C30.7,65.7,30.7,65.7,30.7,65.6 M26.6,67.3v-3.5
		h-0.8v2.1l-1.6-2.1h-0.7v3.5h0.8v-2.2l1.6,2.2H26.6z M22.6,65.9V64h-0.8v2c0,0.5-0.3,0.8-0.8,0.8s-0.8-0.3-0.8-0.9v-2h-0.8v2
		c-0.1,0.8,0.4,1.4,1.2,1.5c0.1,0,0.2,0,0.3,0c0.8,0.1,1.4-0.5,1.5-1.3C22.6,66,22.6,66,22.6,65.9 M18.1,65.6c0.1,0.5-0.4,1-1,1.1
		H17c-0.6,0-1-0.5-1-1v-0.1l0,0c-0.1-0.5,0.4-1,1-1.1l0,0C17.6,64.5,18.1,65,18.1,65.6L18.1,65.6z M18.9,65.6L18.9,65.6
		c0-1-0.8-1.9-1.9-1.9s-1.9,0.9-1.9,1.9l0,0c0,1,0.8,1.8,1.8,1.8H17C18,67.4,18.8,66.7,18.9,65.6L18.9,65.6 M14.7,66.3L14.7,66.3
		c0-0.6-0.4-0.9-1.1-1c-0.6-0.2-0.8-0.2-0.8-0.4l0,0c0-0.2,0.2-0.3,0.4-0.3c0.3,0,0.7,0.2,0.9,0.3l0.4-0.5c-0.4-0.3-0.8-0.4-1.3-0.4
		c-0.6-0.1-1.1,0.4-1.2,1l0,0c0,0.7,0.4,0.9,1.2,1c0.5,0.2,0.7,0.3,0.7,0.4l0,0c0,0.2-0.2,0.3-0.5,0.3c-0.4,0-0.8-0.2-1-0.4L12,66.8
		c0.4,0.3,0.9,0.5,1.5,0.5C14.2,67.4,14.7,67,14.7,66.3 M10,67.3v-0.7H8.1v-0.7h1.6v-0.7H8.1v-0.6H10v-0.7H7.4v3.5L10,67.3z
		 M6.4,67.3v-3.5H5.7v1.4H4.2v-1.4H3.5v3.5h0.8v-1.4h1.4v1.4C5.7,67.3,6.4,67.3,6.4,67.3z M2.9,64.6v-0.7H0v0.7h1v2.7h0.8v-2.7H2.9z
		"/>
</g>
</svg>
