<svg xmlns="http://www.w3.org/2000/svg" viewBox="0 0 200.51 188.59"><defs><style>.cls-1{fill:#00fe02;}</style></defs><g id="レイヤー_2" data-name="レイヤー 2"><g id="レイヤー_1-2" data-name="レイヤー 1"><path class="cls-1" d="M34.16,170.81c-8.66-8.67-11.64-20.57-12.66-28.17a53.44,53.44,0,0,0-21.5,1s4.6,18.57,18.78,26.76c6.64,3.83,14.2,4.71,20.36,4.56a38,38,0,0,1-5-4.16"/><path class="cls-1" d="M179,142.64c-1,7.6-4,19.5-12.65,28.17a38.67,38.67,0,0,1-5,4.16c6.16.15,13.72-.73,20.36-4.56,14.17-8.19,18.78-26.76,18.78-26.76a53.47,53.47,0,0,0-21.51-1"/><path class="cls-1" d="M62.47,172.25a30.08,30.08,0,0,1-7.82-28.86c-11.53-8.32-27-8-27-8s-.36,19.12,11.22,30.7c10,10,25.55,11.09,29.67,11.2a41.35,41.35,0,0,1-6.11-5"/><path class="cls-1" d="M145.86,143.39A30.08,30.08,0,0,1,138,172.25a41.87,41.87,0,0,1-6.11,5c4.12-.11,19.69-1.22,29.67-11.2,11.58-11.58,11.22-30.7,11.22-30.7s-15.43-.29-27,8"/><path class="cls-1" d="M100.25,0A87.8,87.8,0,0,0,22.57,128.74l5-.1c.77,0,16.59-.18,29.55,8.32a30.53,30.53,0,0,1,2.4-3.82,61,61,0,1,1,81.47,0,29.33,29.33,0,0,1,2.39,3.82c13-8.5,28.79-8.33,29.56-8.32l5,.1A87.78,87.78,0,0,0,100.25,0"/><path class="cls-1" d="M133.29,134.46a23.37,23.37,0,0,0-33,0,23.36,23.36,0,0,0-33,33c9.13,9.13,22.5,11.12,33,21.09,10.55-10,23.92-12,33-21.09a23.35,23.35,0,0,0,0-33"/></g></g></svg>