<svg id="stores" xmlns="http://www.w3.org/2000/svg" xmlns:xlink="http://www.w3.org/1999/xlink" viewBox="0 0 6.68 69.86"><defs><style>.cls-1{fill:none;}.cls-2{clip-path:url(#clip-path);}.cls-3{fill:#231815;}</style><clipPath id="clip-path" transform="translate(0 0)"><rect class="cls-1" width="6.68" height="69.86"/></clipPath></defs><g id="レイヤー_2" data-name="レイヤー 2"><g id="レイヤー_1-2" data-name="レイヤー 1"><g class="cls-2"><path class="cls-3" d="M6.57,0H5.34V3.42H4v-3H2.78v3H1.5V.05H.27V4.8h6.3ZM2.44,7.65c.53,0,.89.39.89,1.06v1.41H1.52V8.74c0-.67.31-1.09.9-1.09ZM6.57,6.06,4.32,7.6A2,2,0,0,0,2.37,6.25h0c-1.3,0-2.08.89-2.08,2.37V11.5h6.3V10.12h-2V9l2-1.35ZM3.44,14.35a1.88,1.88,0,0,1,2,1.89,1.91,1.91,0,0,1-2,1.9h0a1.88,1.88,0,0,1-2-1.89,1.91,1.91,0,0,1,2-1.9Zm0-1.45h0A3.23,3.23,0,0,0,.16,16.24a3.26,3.26,0,0,0,3.26,3.35h0a3.23,3.23,0,0,0,3.24-3.34A3.26,3.26,0,0,0,3.42,12.9M1.55,20.33H.27v5.22H1.55V23.64h5V22.25h-5Zm3.16,6.1h0c-1.1,0-1.56.72-1.89,2-.28,1.09-.41,1.36-.83,1.36H2c-.3,0-.55-.28-.55-.81A3,3,0,0,1,2,27.34l-1-.72A3.66,3.66,0,0,0,.18,29a2,2,0,0,0,1.9,2.21h0c1.25,0,1.6-.82,1.92-2.09.27-1.06.45-1.27.8-1.27h0c.37,0,.6.34.6.91a2.89,2.89,0,0,1-.77,1.88l1,.82a4,4,0,0,0,1-2.68c0-1.35-.7-2.31-1.95-2.31M4,38.58A1.61,1.61,0,0,1,2.4,37.07,1.54,1.54,0,0,1,4,35.58ZM6.68,37A2.42,2.42,0,0,0,5.81,35l-.39.44a1.89,1.89,0,0,1,.66,1.46A1.63,1.63,0,0,1,4.5,38.58V34.89H4.28a2.22,2.22,0,0,0-2.46,2.17,2.29,2.29,0,0,0,2.42,2.23h0A2.31,2.31,0,0,0,6.68,37m-.11,7.72V44H3.91a1.37,1.37,0,0,1-1.46-1.4,1.23,1.23,0,0,1,1.4-1.28H6.57v-.7H3.68a1.7,1.7,0,0,0-1.86,1.78A1.76,1.76,0,0,0,2.73,44H1.92v.69Zm0,1.69H1.92v.69H6.57ZM.9,46.31H.14v.8H.9Zm5.67,2.47H0v.69H6.57Zm0,6.41v-.7H3.91A1.36,1.36,0,0,1,2.45,53.1a1.24,1.24,0,0,1,1.4-1.29H6.57v-.69H3.68A1.69,1.69,0,0,0,1.82,52.9a1.74,1.74,0,0,0,.91,1.59H1.92v.7ZM6,60a2.5,2.5,0,0,1-2.6,2.48h0A2.47,2.47,0,0,1,.82,60a2.51,2.51,0,0,1,2.6-2.49h0A2.48,2.48,0,0,1,6,60m.66,0a3.19,3.19,0,0,0-3.26-3.22h0a3.21,3.21,0,1,0,0,6.42h0A3.15,3.15,0,0,0,6.68,60M2.44,67.81V66.1l1.93.32v1.72Zm1.92-3.08v1.06l-1.91-.32V64.38H1.83v1L.27,65.09v.63L1.83,66v1.72L.27,67.44v.63l1.56.27v1.17h.62V68.45l1.91.32v1.09H5v-1l1.59.27v-.63L5,68.25V66.53l1.59.27v-.63L5,65.9V64.73Z" transform="translate(0 0)"/></g></g></g></svg>