<svg xmlns="http://www.w3.org/2000/svg" xmlns:xlink="http://www.w3.org/1999/xlink" viewBox="0 0 20.34 212.8"><defs><style>.cls-1{fill:none;}.cls-2{clip-path:url(#clip-path);}.cls-3{fill:#231815;}</style><clipPath id="clip-path" transform="translate(0 0)"><rect class="cls-1" width="20.35" height="212.8"/></clipPath></defs><g id="レイヤー_2" data-name="レイヤー 2"><g id="レイヤー_1-2" data-name="レイヤー 1"><g class="cls-2"><path class="cls-3" d="M20,0H16.26V10.42h-4v-9H8.47v9.05H4.58V.14H.82V14.61H20ZM7.43,23.31c1.62,0,2.71,1.18,2.71,3.23v4.28H4.63v-4.2c0-2.05.94-3.31,2.75-3.31ZM20,18.45l-6.85,4.69A6,6,0,0,0,7.21,19h0C3.21,19,.82,21.74.82,26.27V35H20V30.82H13.87V27.5L20,23.39ZM10.47,43.7a5.74,5.74,0,0,1,6,5.76,5.83,5.83,0,0,1-6,5.81h-.06a5.74,5.74,0,0,1-6-5.76,5.83,5.83,0,0,1,6-5.81Zm-.05-4.41h-.06A9.84,9.84,0,0,0,.49,49.46a9.92,9.92,0,0,0,9.93,10.22h.05a9.83,9.83,0,0,0,9.87-10.17,9.92,9.92,0,0,0-9.92-10.22M4.72,61.93H.82V77.84h3.9V72H20V67.77H4.72Zm9.62,18.58h-.06c-3.34,0-4.74,2.2-5.75,6.09C7.68,89.92,7.27,90.74,6,90.74H6c-.93,0-1.67-.85-1.67-2.47a9,9,0,0,1,1.89-5L3,81.09A11.13,11.13,0,0,0,.55,88.22c0,3.92,2.3,6.71,5.78,6.71h.06c3.81,0,4.88-2.49,5.87-6.36.82-3.2,1.37-3.86,2.44-3.86h.05c1.12,0,1.81,1,1.81,2.77a8.85,8.85,0,0,1-2.33,5.73l3,2.49a12.22,12.22,0,0,0,3.07-8.14c0-4.14-2.14-7-5.95-7m-2.19,37c-2.77-.27-4.83-2.13-4.83-4.6,0-2.83,2.25-4.31,4.83-4.53Zm8.19-4.93a7.3,7.3,0,0,0-2.65-5.84l-1.18,1.31a5.9,5.9,0,0,1,2,4.47,5,5,0,0,1-4.8,5V106.28c-.25,0-.41,0-.69,0-4.14,0-7.48,2.41-7.48,6.6,0,3.92,3.29,6.8,7.37,6.8H13a7,7,0,0,0,7.37-7.07M20,136.1V134H11.9a4.16,4.16,0,0,1-4.44-4.24c0-2.5,1.64-3.93,4.27-3.93H20v-2.11h-8.8c-3.37,0-5.67,2-5.67,5.43A5.35,5.35,0,0,0,8.31,134H5.84v2.11Zm0,5.14H5.84v2.11H20Zm-17.27-.16H.41v2.41H2.74ZM20,148.59H0v2.11H20Zm0,19.51V166H11.9a4.17,4.17,0,0,1-4.44-4.25c0-2.5,1.64-3.93,4.27-3.93H20v-2.1h-8.8c-3.37,0-5.67,2-5.67,5.42A5.38,5.38,0,0,0,8.31,166H5.84v2.1Zm-1.67,14.55a7.63,7.63,0,0,1-7.92,7.56h-.06A7.53,7.53,0,0,1,2.5,182.7a7.63,7.63,0,0,1,7.92-7.57h.05a7.54,7.54,0,0,1,7.87,7.52m2,0a9.72,9.72,0,0,0-9.92-9.81h-.06a9.79,9.79,0,1,0,.06,19.57h.05a9.63,9.63,0,0,0,9.87-9.76M7.43,206.55v-5.21l5.87,1v5.23Zm5.84-9.37v3.23l-5.81-1v-3.31H5.57v3l-4.74-.82v1.92l4.74.82v5.24l-4.74-.83v1.92l4.74.83v3.56H7.46v-3.24l5.81,1v3.32h1.89v-3l4.85.82v-1.92l-4.85-.82v-5.23l4.85.82v-1.92l-4.85-.82v-3.56Z" transform="translate(0 0)"/></g></g></g></svg>