<?xml version="1.0" encoding="utf-8"?>
<!-- Generator: Adobe Illustrator 24.3.0, SVG Export Plug-In . SVG Version: 6.00 Build 0)  -->
<svg version="1.1" id="レイヤー_1" xmlns="http://www.w3.org/2000/svg" xmlns:xlink="http://www.w3.org/1999/xlink" x="0px"
	 y="0px" viewBox="0 0 108.8 13.2" style="enable-background:new 0 0 108.8 13.2;" xml:space="preserve">
<style type="text/css">
	.st0{fill:#00FE02;}
</style>
<g>
	<path class="st0" d="M106.1,6.3c1.4-0.5,2.3-1.4,2.3-2.9v0c0-0.9-0.3-1.5-0.8-2c-0.8-0.8-1.9-1.2-3.7-1.2h-7.2v11.3L92,0.2h-4.3
		l-3.9,9.2h-4.5V0.2H75v12.9h7.3h3.1h1.5l0.7-1.7H92l0.7,1.7h4h0.7h6.5c3.3,0,5-1.5,5-3.6v0C108.8,7.7,107.7,6.8,106.1,6.3z
		 M88.6,8.3l1.2-3.1l1.2,3.1H88.6z M100.9,3.4h1.9c0.9,0,1.4,0.3,1.4,0.9v0c0,0.6-0.4,0.9-1.4,0.9h-1.9V3.4z M104.5,8.9
		c0,0.6-0.5,0.9-1.4,0.9h-2.2V7.9h2.2C104,7.9,104.5,8.3,104.5,8.9L104.5,8.9z"/>
	<path class="st0" d="M9,0.2H8.2L7.6,3.6H3.8l0.6-3.4H3.6L3,3.6H0.7v0.8h2.2L2.1,8.7H0v0.8h2L1.4,13h0.8l0.6-3.6h3.8L6,13h0.8
		l0.6-3.6h2.3V8.7H7.5l0.7-4.2h2.1V3.6h-2L9,0.2z M6.7,8.7H2.9l0.7-4.2h3.8L6.7,8.7z"/>
	<path class="st0" d="M17.4,6.1c-3.2-0.6-3.8-1.5-3.8-2.7v0c0-1.3,1.3-2.6,3.4-2.6c1.4,0,2.7,0.5,3.9,1.3L21,2.3l0.5-0.7l-0.2-0.1
		C20.1,0.5,18.6,0,17,0c-2.4,0-4.3,1.5-4.3,3.4v0c0,1.9,1.2,2.8,4.4,3.5C20.4,7.6,21,8.4,21,9.7v0c0,1.6-1.5,2.7-3.6,2.7
		c-1.7,0-3.3-0.6-4.5-1.8l-0.2-0.2L12.1,11l0.2,0.2c1.4,1.3,3.2,2,5.1,2c2.6,0,4.5-1.4,4.5-3.5v0C21.8,7.8,20.6,6.8,17.4,6.1z"/>
	<rect x="27.5" y="0.2" class="st0" width="0.8" height="12.8"/>
	<path class="st0" d="M46.2,3.5c-1.6,0-2.7,0.9-3.3,1.8V3.7H42V13h0.8V7.9c0-2,1.4-3.6,3.3-3.6c2,0,3.1,1.3,3.1,3.5V13h0.8V7.8
		C50.1,5.1,48.6,3.5,46.2,3.5z"/>
	<path class="st0" d="M35.1,3.5c-2.7,0-4.9,2.2-4.9,4.9c0,2.7,2.2,4.9,4.9,4.9c1.9,0,3.6-1.1,4.4-2.8l0.1-0.3h-0.9l-0.1,0.1
		c-0.7,1.4-2.1,2.2-3.6,2.2c-2.1,0-3.8-1.6-4-3.6H40l0-0.3c0,0,0-0.1,0-0.1C40,5.7,37.8,3.5,35.1,3.5z M31.1,7.9
		c0.2-2.1,1.9-3.6,4-3.6c2.1,0,3.8,1.6,4,3.6H31.1z"/>
	<path class="st0" d="M67.3,3.5c-2.7,0-4.9,2.2-4.9,4.9c0,2.7,2.2,4.9,4.9,4.9c1.9,0,3.6-1.1,4.4-2.8l0.1-0.3H71l-0.1,0.1
		c-0.7,1.4-2.1,2.2-3.6,2.2c-2.1,0-3.8-1.6-4-3.6h8.9l0-0.3c0,0,0-0.1,0-0.1C72.2,5.7,70,3.5,67.3,3.5z M63.3,7.9
		c0.2-2.1,1.9-3.6,4-3.6c2.1,0,3.8,1.6,4,3.6H63.3z"/>
	<path class="st0" d="M56.5,4.3c1.5,0,2.9,0.9,3.6,2.2l0.1,0.1h0.9l-0.1-0.3c-0.8-1.7-2.5-2.8-4.4-2.8c-2.7,0-4.9,2.2-4.9,4.9
		c0,2.7,2.2,4.9,4.9,4.9c1.9,0,3.6-1.1,4.4-2.8l0.1-0.3h-0.9l-0.1,0.1c-0.7,1.4-2.1,2.2-3.6,2.2c-2.2,0-4-1.8-4-4
		C52.5,6.1,54.3,4.3,56.5,4.3z"/>
	<rect x="24" y="3.7" class="st0" width="0.8" height="9.3"/>
	<path class="st0" d="M24.4,0c-0.3,0-0.6,0.3-0.6,0.6c0,0.3,0.3,0.6,0.6,0.6c0.3,0,0.6-0.3,0.6-0.6C25,0.3,24.7,0,24.4,0z"/>
</g>
</svg>
