<svg xmlns="http://www.w3.org/2000/svg" viewBox="0 0 148.15 331.95"><defs><style>.cls-1{fill:#00fe02}</style></defs><g id="レイヤー_2" data-name="レイヤー 2"><g id="レイヤー_1-2" data-name="レイヤー 1"><path class="cls-1" d="M0 0v148.13h148.13V0zm37.06 135.78H24.67V61.71H12.3V49.36h12.37V37H37V12.33h12.41V37H37.06zm98.72-61.73V86.4h-37v37h24.62V98.75h12.39v37H86.38v-37h-37V86.4h37V74.05H61.71V61.71h37V49.36h24.7V37H74.08v12.36H61.69V24.67h24.69V12.33h12.39v12.34h37v24.69h-12.33v12.35H98.75v12.34zm-37.01 171.5h12.32v37.04H98.77z"/><path class="cls-1" d="M123.42 233.2v-12.35H61.77v12.35H74.1v12.35H61.77v12.34H74.1v12.35H61.77v12.34h24.61V233.2h37.04zm-37 61.73h12.33v-12.35H86.42v12.35z"/><path class="cls-1" d="M0 183.82V332h148.15V183.82zm98.79 111.11v12.35H86.43v12.35H74v-24.7H61.77v24.69H37v-12.34h12.38v-37H37.06v24.69H24.71v12.35H12.33v-12.39h12.34v-24.69H12.33v-12.35h37.05v-37H24.74v24.7H12.35v-37h61.7v-12.43h12.39v12.35h49.36v37h-12.32v37h-12.34v12.35h12.34v12.35h-12.39v-12.28zm37 24.7h-12.35v-12.34h12.39z"/></g></g></svg>