<svg xmlns="http://www.w3.org/2000/svg" viewBox="0 0 327.34 60.15"><g data-name="レイヤー 2"><path d="M248 14.75c3.23-1.12 5.38-3.31 5.38-6.89v-.08a6.44 6.44 0 00-1.85-4.7c-1.76-1.76-4.39-2.71-8.57-2.71H226v26.47L215 .37h-10.21l-9 21.53H185.3V.37h-10.08v30.14h27.72l1.55-4.05H215l1.59 4.05h26.11c7.62 0 11.58-3.53 11.58-8.35v-.09c.04-4.13-2.45-6.2-6.28-7.32zm-41 4.56l2.79-7.31 2.75 7.32zM235.85 8h4.35c2.15 0 3.23.73 3.23 2.07v.08c0 1.34-1 2.07-3.19 2.07h-4.39zm8.35 12.7c0 1.29-1.11 2.2-3.31 2.2h-5v-4.49h5.08c2.2 0 3.27.9 3.27 2.2zM21 .41h-1.89l-1.4 8.07h-8.8L10.32.41H8.4L7 8.48H1.65v1.86h5L5 20.27H0v1.86h4.66l-1.41 8.31h1.92l1.41-8.31h8.79L14 30.44h1.92l1.41-8.31h5.34v-1.86h-5l1.68-9.93h5V8.48h-4.72zm-5.32 19.86H6.89l1.71-9.93h8.79zm24.91-5.99c-7.45-1.52-8.91-3.46-8.91-6.3V7.9c0-2.95 3-6 7.9-6A14.86 14.86 0 0148.6 5l.42.32 1.24-1.59-.43-.33A16.56 16.56 0 0039.66 0c-5.59 0-10 3.49-10 7.94V8c0 4.36 2.89 6.64 10.32 8.14 7.6 1.55 9 3.45 9 6.42v.09c0 3.7-3.44 6.28-8.36 6.28a14.84 14.84 0 01-10.5-4.31l-.38-.37-1.36 1.45.4.38a17 17 0 0011.83 4.78c6.14 0 10.43-3.39 10.43-8.24v-.08c-.04-4.42-2.93-6.73-10.45-8.26zM64.27.41h1.95v30.03h-1.95zM108 8.19a9.09 9.09 0 00-7.77 4.23V8.69h-2v21.75h2v-12c0-4.69 3.38-8.36 7.69-8.36 4.68 0 7.36 3 7.36 8.19v12.17h2V18.2c-.09-6.2-3.63-10.01-9.28-10.01zm-25.9-.06A11.37 11.37 0 1092.43 24.2l.35-.76h-2.1l-.15.29a9.44 9.44 0 01-17.83-3.28h20.72v-.96A11.38 11.38 0 0082.1 8.13zm-9.4 10.41a9.44 9.44 0 0118.79 0zm84.63-10.41a11.37 11.37 0 1010.33 16.07l.35-.76h-2.1l-.15.29a9.44 9.44 0 01-17.83-3.28h20.72v-.67a2.81 2.81 0 000-.29 11.38 11.38 0 00-11.32-11.36zm-9.4 10.41a9.45 9.45 0 0118.8 0zM132.11 10a9.42 9.42 0 018.44 5.22l.15.29h2.09l-.35-.76a11.37 11.37 0 100 9.41l.35-.76h-2.09l-.15.29A9.45 9.45 0 11132.11 10zm-76-1.31h1.95v21.76h-1.95zM57.08 0a1.4 1.4 0 101.41 1.4A1.4 1.4 0 0057.08 0zM4.75 48H.36v-2.54h11.91V48H7.89v11.94H4.75zm10.51-2.54h3.13v5.65h5.82v-5.65h3.13v14.48h-3.13v-6.27h-5.82v6.27h-3.13zm26.55 8.23h-6.92v3.68h7.64l-.38 2.57h-10.3V45.46h10.26V48h-7.22v3.1h6.92zm12.32 2c.33 1.46 1.37 2.09 3 2.09s2.38-.66 2.38-1.72-.69-1.69-3.17-2.26c-3.94-.93-4.91-2.36-4.91-4.31 0-2.53 1.88-4.24 5.31-4.24 3.84 0 5.38 2.07 5.58 4.18h-3.1c-.15-.89-.64-1.85-2.51-1.85-1.27 0-2 .52-2 1.55s.62 1.41 3 2c4.21 1 5.13 2.55 5.13 4.59 0 2.65-2 4.46-5.83 4.46-3.67 0-5.61-1.81-6-4.45zm25.59-3.04c0 4-2.42 7.5-7.12 7.5-4.54 0-6.92-3.31-6.92-7.45s2.63-7.45 7.12-7.45c4.2 0 6.92 2.97 6.92 7.4zm-10.81 0c0 2.82 1.24 5 3.81 5 2.78 0 3.77-2.33 3.77-4.91 0-2.74-1.12-4.89-3.82-4.89s-3.76 1.97-3.76 4.79zm17.54-7.19v8.63c0 2.77 1.43 3.6 3 3.6 1.79 0 2.92-1 2.92-3.6v-8.63h3.13v8.47c0 5-2.9 6.21-6.09 6.21s-6.09-1.31-6.09-6.14v-8.54zm13.33 14.48V45.46h3.88c1.81 3.25 5.15 9.11 5.82 10.69-.16-1.51-.16-4-.16-6.4v-4.29h2.83v14.48h-3.67c-1.56-2.83-5.26-9.57-6-11.24.11 1.27.14 4.24.14 6.83v4.41zm16.91-14.48h5.74c4.22 0 7 2.78 7 7.06s-2.67 7.42-7.1 7.42h-5.61zm3.13 11.95h2.35c2.77 0 4-2.07 4-4.89 0-2.36-1.15-4.53-4-4.53h-2.37zm19.51-11.95h10.1V48h-7.05v3.54H149v2.57h-6.61v5.8h-3zm16.45 8.68v5.8h-3.05V45.46h6.36c3.15 0 4.85 1.74 4.85 4a3.47 3.47 0 01-2.1 3.43c.71.26 1.8 1 1.8 3.6v.72a12.1 12.1 0 00.2 2.76h-3a10 10 0 01-.3-3.25v-.22c0-1.58-.4-2.33-2.74-2.33zm0-2.49h2.63c1.71 0 2.37-.65 2.37-1.86S160 48 158.48 48h-2.7zm25.22 1c0 4-2.42 7.5-7.12 7.5-4.54 0-6.92-3.31-6.92-7.45s2.63-7.45 7.12-7.45c4.24 0 6.92 2.97 6.92 7.4zm-10.81 0c0 2.82 1.25 5 3.81 5 2.78 0 3.77-2.33 3.77-4.91 0-2.74-1.12-4.89-3.82-4.89s-3.76 1.97-3.76 4.79zm26.73 1.86c0-2.47 0-5.24.11-6.88h-.1c-.68 2.95-2.13 7.78-3.52 12.31h-2.66c-1.06-4-2.56-9.46-3.19-12.35h-.1c.12 1.7.19 4.68.19 7.16v5.19h-2.86V45.46h4.66c1.13 3.78 2.39 8.53 2.83 10.68.36-1.9 1.95-7 3.15-10.68h4.49v14.48h-3zm15.98 5.43l-3.68-14.48h3.33c1.36 6.65 2 9.6 2.15 11.19.55-2.65 1.95-7.69 2.79-11.19h2.81c.75 2.78 2.21 8.39 2.68 11 .48-3.18 1.91-8.79 2.42-11h3l-3.93 14.48h-3.24c-.76-3.21-2-7.89-2.54-10.37-.53 2.58-1.84 7.45-2.61 10.37zm21.41-3.35l-1.13 3.35h-3.07L235 45.46h4l5.13 14.48h-3.29l-1.19-3.35zm4.62-2.59c-1-3.06-1.68-5-2-6.31-.35 1.43-1.07 3.7-1.9 6.31zm8.17-8.54h6.32c3.5 0 4.83 1.82 4.83 3.7a3.29 3.29 0 01-1.85 3.14 3.45 3.45 0 012.26 3.3c0 2.48-1.94 4.34-5 4.34h-6.56zm6 5.71c1.49 0 2.11-.67 2.11-1.68s-.81-1.61-2-1.61h-3v3.29zm-2.89 6.35H253c1.7 0 2.46-.71 2.46-2s-.75-1.91-2.47-1.91h-2.81zm15.24-12.06v14.48h-3.13V45.46zm9.75 7.77v2.61h-5.85v-2.61zm6.02 2.46c.33 1.46 1.37 2.09 3 2.09s2.38-.66 2.38-1.72-.69-1.69-3.17-2.26c-3.94-.93-4.91-2.36-4.91-4.31 0-2.53 1.89-4.24 5.31-4.24 3.85 0 5.38 2.07 5.58 4.18h-3.15c-.15-.89-.64-1.85-2.51-1.85-1.27 0-2 .52-2 1.55s.62 1.41 3 2c4.21 1 5.13 2.55 5.13 4.59 0 2.65-2 4.46-5.83 4.46-3.67 0-5.61-1.81-5.95-4.45zm14.98.9l-1.13 3.35H292l4.92-14.48h3.93L306 59.94h-3.29l-1.19-3.35zm4.61-2.59c-1-3.06-1.68-5-2-6.31-.36 1.43-1.08 3.7-1.9 6.31zm8.19-8.54h6.33c3.5 0 4.82 1.82 4.82 3.7a3.28 3.28 0 01-1.84 3.14 3.45 3.45 0 012.26 3.3c0 2.48-1.95 4.34-5 4.34H309zm6 5.71c1.49 0 2.1-.67 2.1-1.68s-.8-1.61-2-1.61h-3v3.29zm-2.89 6.35h2.82c1.69 0 2.46-.71 2.46-2s-.76-1.91-2.48-1.91h-2.8zm15.23-12.06v14.48h-3.13V45.46z" fill="#00fe02" data-name="レイヤー 1"/></g></svg>