<svg xmlns="http://www.w3.org/2000/svg" viewBox="0 0 22.76 628.08"><g data-name="レイヤー 2"><path d="M5 4.21L21.55 0v3.82c-7.61 1.55-11 2.25-12.8 2.45 3 .63 8.8 2.23 12.8 3.19v3.24c-3.18.85-9.6 2.52-12.63 3.06 3.65.54 10 2.17 12.63 2.75V22L5 17.53v-3.7c3.66-.87 9-2.33 11.84-2.91-2.94-.63-8.51-2.12-11.84-3zm3.82 24.33L5 27.25v-3.52l16.55 5.62v4.5L5 39.71V36l3.82-1.36zm2.93 5.28c3.5-1.18 5.73-1.93 7.21-2.33-1.63-.41-4.22-1.24-7.21-2.18zm9.8 10.41v7.23c0 4-2.09 5.52-4.24 5.52a3.78 3.78 0 01-3.59-2.11A3.93 3.93 0 0110 57.45c-2.88 0-5-2.22-5-5.74v-7.48zM7.76 47.74V51c0 1.93.81 2.81 2.31 2.81 1.33 0 2.18-.86 2.18-2.83v-3.24zM15 51.05c0 1.7.76 2.4 1.92 2.4s1.84-.92 1.84-2.3v-3.41H15zm6.55 15.17H5v-3.58h16.55zm-8.88 12.09h-3v-6.68h3zM9.85 86.4c-1.66.37-2.39 1.57-2.39 3.48s.75 2.73 2 2.73 1.9-.8 2.54-3.61c1.06-4.5 2.7-5.62 4.93-5.62 2.89 0 4.85 2.16 4.85 6.08 0 4.39-2.37 6.14-4.79 6.38v-3.6c1-.18 2.13-.74 2.13-2.87 0-1.46-.6-2.33-1.78-2.33s-1.61.7-2.23 3.37c-1.14 4.82-2.93 5.87-5.26 5.87-3 0-5.1-2.28-5.1-6.66 0-4.2 2.07-6.41 5.09-6.81zm-1.03 18.46L5 103.57v-3.52l16.55 5.62v4.49L5 116v-3.76l3.82-1.37zm2.93 5.27c3.5-1.17 5.73-1.92 7.21-2.32-1.63-.41-4.22-1.24-7.21-2.18zm9.8 10.42v7.23c0 4-2.09 5.51-4.24 5.51a3.77 3.77 0 01-3.59-2.1 4 4 0 01-3.72 2.58c-2.88 0-5-2.23-5-5.77v-7.47zm-13.79 3.51v3.23c0 1.93.81 2.81 2.31 2.81 1.33 0 2.18-.86 2.18-2.83v-3.21zm7.24 3.31c0 1.7.76 2.4 1.92 2.4s1.84-.92 1.84-2.3v-3.41H15zm6.55 15.17H5V139h16.55zM5 148.86h4v3.58H5zm8.31 0h4v3.58h-4zm-5.1 27.79a28.21 28.21 0 00-3.21.17v-3.29a5 5 0 011.21-.17c-.7-.45-1.5-1.3-1.5-3.49 0-3 2-4.26 3.9-4.26 2.83 0 4.13 2.27 4.13 5.91v1.77h.76c.88 0 1.75-.31 1.75-1.91 0-1.45-.61-1.77-1.51-1.93v-3.27c2.2.19 4 1.55 4 5.33 0 3.33-1.32 5.14-4.28 5.14zm2.44-3.35v-1.4c0-2.08-.63-2.84-1.83-2.84a1.59 1.59 0 00-1.65 1.78c0 2.19 1.52 2.46 3.16 2.46zm-1.92 19.61a2.14 2.14 0 00-1.54 2.35c0 1.27.45 1.73 1.21 1.73s1.11-.53 1.54-2.31c1-4.05 2.25-4.71 4-4.71s3.76 1.29 3.76 5-2.06 5.05-3.74 5.16v-3.27c.46-.12 1.33-.42 1.33-2 0-1.14-.51-1.5-1.07-1.5s-.91.38-1.38 2.4c-1 4.14-2.39 4.73-4.21 4.73-2.06 0-3.93-1.56-3.93-5.35s1.82-5.33 4-5.6zM10.47 208c-1.55 0-3.07.78-3.07 2.49a2 2 0 001.33 2.17v3.44a5.45 5.45 0 01-4-5.7c0-4.09 3.06-5.87 6.32-5.87 3.9 0 6.68 2 6.68 6 0 4.27-3.09 5.72-6.19 5.72a8.7 8.7 0 01-1 0zm2.12 4.79c1.44 0 2.66-.6 2.66-2.27s-1.14-2.31-2.66-2.45zm1.7 8.27h3.13v3.33a14.85 14.85 0 01-1.58.13 3.8 3.8 0 011.87 3.61c0 2.49-1.69 4.11-4.81 4.11H5v-3.44h7.52c1.4 0 2.41-.46 2.41-2s-.81-2.3-3-2.3H5v-3.44zM8.73 240a2.15 2.15 0 00-1.54 2.36c0 1.26.45 1.73 1.21 1.73s1.11-.54 1.54-2.32c1-4 2.25-4.71 4-4.71s3.76 1.29 3.76 5-2.06 5-3.74 5.15V244c.46-.11 1.33-.41 1.33-2 0-1.14-.51-1.51-1.07-1.51s-.91.39-1.38 2.41c-1 4.14-2.39 4.73-4.21 4.73-2.06 0-3.93-1.57-3.93-5.35s1.82-5.33 4-5.61zm1.74 15.07c-1.55 0-3.07.78-3.07 2.5a2 2 0 001.33 2.16v3.45a5.45 5.45 0 01-4-5.7c0-4.1 3.06-5.87 6.32-5.87 3.9 0 6.68 2 6.68 6 0 4.27-3.09 5.72-6.19 5.72a7 7 0 01-1-.05zm2.12 4.8c1.44 0 2.66-.6 2.66-2.28s-1.14-2.31-2.66-2.44zm-1.36 27.74c-3.75 0-6.52-2.25-6.52-6.19s2.75-6.1 6.46-6.1 6.54 2.32 6.54 6.26c0 3.66-2.58 6.03-6.48 6.03zm0-8.8c-2.39 0-3.81 1-3.81 2.69s1.42 2.62 3.79 2.62c2.6 0 3.83-1 3.83-2.67s-1.2-2.64-3.83-2.64zM5 292.85h9.84V291h2.58v1.81h1.09c2.57 0 4.25 1.28 4.25 4a6.88 6.88 0 01-.15 1.6H19.9a4.74 4.74 0 00.06-.72c0-1-.38-1.4-1.71-1.4h-.83v2.17h-2.58v-2.17H5zm17.52 17.42v3.44H16.1a3.89 3.89 0 011.61 3.56c0 3.38-2.79 5.06-6.28 5.06s-6.72-1.82-6.72-5.4c0-1.84.56-2.66 1.47-3.26a6.65 6.65 0 01-1.18-.13v-3.29h4.06zm-11.15 8.57c2.07 0 3.58-.76 3.58-2.62s-1.27-2.66-3.81-2.66c-2.09 0-3.7.61-3.7 2.62 0 1.75 1.56 2.66 3.93 2.66zm-.9 11.16c-1.55 0-3.07.78-3.07 2.49a2 2 0 001.33 2.17v3.44a5.45 5.45 0 01-4-5.7c0-4.09 3.06-5.87 6.32-5.87 3.9 0 6.68 2 6.68 6 0 4.27-3.09 5.72-6.19 5.72a8.7 8.7 0 01-1 0zm2.12 4.8c1.44 0 2.66-.61 2.66-2.28s-1.14-2.31-2.66-2.45zm-4.38 18.46a28.21 28.21 0 00-3.21.17v-3.28a5 5 0 011.21-.15c-.7-.45-1.5-1.29-1.5-3.49 0-3 2-4.26 3.9-4.26 2.83 0 4.13 2.27 4.13 5.92v1.77h.76c.88 0 1.75-.32 1.75-1.91s-.61-1.77-1.51-1.93v-3.3c2.2.18 4 1.55 4 5.32 0 3.33-1.32 5.14-4.28 5.14zm2.44-3.35v-1.4c0-2.07-.63-2.84-1.83-2.84a1.59 1.59 0 00-1.65 1.79c0 2.18 1.52 2.45 3.16 2.45zm-2.04 19.74H5v-3.35c.33-.05 1-.07 1.43-.09a3.55 3.55 0 01-1.72-3.42c0-2.54 1.54-4.15 4.62-4.15h8.09v3.44H10c-1.37 0-2.51.42-2.51 1.91s.84 2.22 3.3 2.22h6.61v3.44zm8.81 4.48V376h3.37v3.44h-3.37v2.44h-2.58v-2.44H8.7c-.94 0-1.3.29-1.3 1.32a7.41 7.41 0 000 .78H5.07a7.87 7.87 0 01-.24-2.31c0-2.43 1.3-3.23 3.47-3.23h6.54v-1.91zm0 14.97c-4.29 1.28-8.11 2.4-9.26 2.6 1.25.27 4 1 9.26 2.48v3.42l-12.78-4.15C1.07 392.26 0 391.27 0 388.29a15.71 15.71 0 01.09-1.61h2.77a8.08 8.08 0 000 .89 2.16 2.16 0 001.81 2.36l12.8-4.52zM5 410.36h9.84v-1.82h2.58v1.82h1.09c2.57 0 4.25 1.27 4.25 4a6.88 6.88 0 01-.15 1.6H19.9a5 5 0 00.06-.73c0-1-.38-1.4-1.71-1.4h-.83V416h-2.58v-2.18H5zm6.23 21.15c-3.75 0-6.52-2.25-6.52-6.18s2.75-6.11 6.46-6.11 6.54 2.32 6.54 6.27c0 3.65-2.58 6.02-6.48 6.02zm0-8.8c-2.39 0-3.81 1-3.81 2.69s1.4 2.6 3.77 2.6c2.6 0 3.83-.95 3.83-2.67s-1.18-2.62-3.81-2.62zm-2.62 24.5H5v-3.37c.33-.05 1-.08 1.43-.1a3.53 3.53 0 01-1.72-3.42c0-2.53 1.54-4.14 4.62-4.14h8.09v3.43H10c-1.37 0-2.51.43-2.51 1.92s.84 2.21 3.3 2.21h6.61v3.44zm5.68 5.52h3.13V456a14.85 14.85 0 01-1.58.13 3.8 3.8 0 011.87 3.61c0 2.49-1.69 4.11-4.81 4.11H5v-3.44h7.52c1.4 0 2.41-.46 2.41-2s-.81-2.3-3-2.3H5v-3.44zm8.23 28.01H5v-3.31c.37-.07 1-.14 1.3-.16-1-.6-1.59-1.67-1.59-3.52 0-3.15 2.52-5.14 6.4-5.14s6.6 2.12 6.6 5.64c0 1.79-.63 2.75-1.19 3h6zm-11.32-8.57c-2.42 0-3.73.94-3.73 2.63 0 2.36 2 2.63 3.75 2.63 2.13 0 3.73-.3 3.73-2.54.05-1.81-1.41-2.72-3.75-2.72zm6.22 22.23v3.44H5v-3.44zm5.1 0v3.44h-3.07v-3.44zm-8.23 8.95h3.13v3.33a14.74 14.74 0 01-1.58.14 3.78 3.78 0 011.87 3.6c0 2.5-1.69 4.12-4.81 4.12H5v-3.44h7.52c1.4 0 2.41-.47 2.41-2s-.81-2.29-3-2.29H5v-3.44zM8.73 530.7a2.15 2.15 0 00-1.54 2.35c0 1.27.45 1.73 1.21 1.73s1.11-.53 1.54-2.31c1-4.05 2.25-4.71 4-4.71s3.76 1.29 3.76 5-2.06 5-3.74 5.15v-3.27c.46-.11 1.33-.42 1.33-2 0-1.14-.51-1.51-1.07-1.51s-.91.39-1.38 2.4c-1 4.15-2.39 4.74-4.21 4.74-2.06 0-3.93-1.57-3.93-5.36s1.82-5.33 4-5.6zm8.69 12.3v3.44H5V543zm5.1 0v3.44h-3.07V543zM5 551.88h17.52v3.44H5zm5.47 11.66c-1.55 0-3.07.78-3.07 2.49a2 2 0 001.33 2.17v3.44c-1.52-.44-4-1.79-4-5.7 0-4.09 3.06-5.86 6.32-5.86 3.9 0 6.68 2 6.68 6 0 4.26-3.09 5.71-6.19 5.71a8.7 8.7 0 01-1 0zm2.12 4.8c1.44 0 2.66-.6 2.66-2.28s-1.14-2.31-2.66-2.45zm1.7 8.28h3.13v3.33a14.74 14.74 0 01-1.58.14 3.78 3.78 0 011.87 3.6c0 2.5-1.69 4.12-4.81 4.12H5v-3.44h7.52c1.4 0 2.41-.47 2.41-2s-.81-2.29-3-2.29H5v-3.44zM9 604c-2.07-.43-4.3-1.88-4.3-5.58 0-3.87 2.68-5.86 6.41-5.86s6.59 2.24 6.59 6c0 4.19-3 5.36-4.41 5.42v-3.36A1.94 1.94 0 0015 598.5c0-1.58-1.38-2.47-3.79-2.47-2.64 0-3.85 1-3.85 2.45A2.11 2.11 0 009 600.6zm1.47 7.42c-1.55 0-3.07.78-3.07 2.49a2 2 0 001.33 2.17v3.44c-1.52-.44-4-1.79-4-5.7 0-4.09 3.06-5.86 6.32-5.86 3.9 0 6.68 2 6.68 6 0 4.26-3.09 5.71-6.19 5.71a8.7 8.7 0 01-1 0zm2.12 4.8c1.44 0 2.66-.6 2.66-2.28s-1.14-2.31-2.66-2.45zM5 624.38h4.21v3.7H5z" fill="#00fe02" data-name="レイヤー 1"/></g></svg>