<svg xmlns="http://www.w3.org/2000/svg" viewBox="0 0 339.1 284.08"><g data-name="レイヤー 2"><g data-name="レイヤー 1"><path d="M86.61 210v74.06h74.06V210zm18.53 67.89h-6.2v-37h-6.18v-6.17h6.18v-6.17h6.18v-12.38h6.19v12.35h-6.17zM154.5 247v6.17H136v18.52h12.32v-12.31h6.19v18.52H129.8v-18.52h-18.51v-6.17h18.52V247h-12.35v-6.18H136v-6.17h12.35v-6.17h-24.7v6.17h-6.2v-12.3h12.35v-6.18h6.2v6.18h18.5v12.34h-6.18v6.17H136V247zm73.3-6.12h6.16v18.52h-6.16z"/><path d="M240.12 234.71v-6.17H209.3v6.17h6.16v6.17h-6.16v6.17h6.16v6.18h-6.16v6.17h12.3v-24.69h18.52zm-18.5 30.86h6.16v-6.17h-6.16v6.17z"/><path d="M178.42 210v74.06h74.07V210zm49.39 55.55v6.18h-6.18v6.17h-6.2v-12.33h-6.13v12.35h-12.38v-6.17h6.18v-18.52h-6.16v12.34h-6.17v6.18h-6.19v-6.18h6.17v-12.34h-6.17v-6.18h18.52v-18.51h-12.32v12.34h-6.19v-18.52h30.86v-6.17h6.19v6.17h24.69v18.52h-6.17v18.52H234v6.17h6.17v6.18H234v-6.18zm18.52 12.35h-6.2v-6.17h6.2zM125.49 113.87c-5.78-5.77-7.76-13.71-8.44-18.78a35.65 35.65 0 00-14.34.68s3.07 12.38 12.52 17.84a26 26 0 0013.57 3 24.43 24.43 0 01-3.31-2.77m96.56-18.75c-.68 5.07-2.66 13-8.44 18.78a23.91 23.91 0 01-3.32 2.77 26 26 0 0013.57-3c9.46-5.46 12.52-17.84 12.52-17.84a35.61 35.61 0 00-14.33-.68m-77.69 19.71a20 20 0 01-5.22-19.23c-7.68-5.55-18-5.36-18-5.36s-.24 12.75 7.48 20.47c6.65 6.65 17 7.39 19.78 7.47a27.62 27.62 0 01-4.07-3.35M200 95.6a20 20 0 01-5.21 19.23 28.7 28.7 0 01-4.07 3.35c2.74-.08 13.12-.82 19.78-7.47 7.71-7.72 7.47-20.47 7.47-20.47s-10.28-.19-18 5.36M169.55 0a58.53 58.53 0 00-51.79 85.83l3.33-.07c.51 0 11.06-.12 19.7 5.55a21.3 21.3 0 011.6-2.55 40.65 40.65 0 1154.31 0 19 19 0 011.6 2.55c8.64-5.67 19.19-5.56 19.71-5.55l3.32.07A58.53 58.53 0 00169.55 0"/><path d="M191.57 89.64a15.57 15.57 0 00-22 0 15.58 15.58 0 00-22 22c6.08 6.08 15 7.41 22 14.06 7-6.65 15.94-8 22-14.06a15.57 15.57 0 000-22m139.03 66.98c4.31-1.5 7.18-4.42 7.18-9.19v-.11a8.59 8.59 0 00-2.47-6.26c-2.36-2.35-5.86-3.62-11.43-3.62h-22.5v35.3l-14.77-35.3h-13.56l-12 28.71h-14v-28.71h-13.42v40.19h37l2.07-5.4h14.06l2.13 5.4h34.8c10.16 0 15.45-4.71 15.45-11.14v-.12c-.04-5.51-3.37-8.26-8.54-9.75zM276 162.7l3.68-9.76 3.67 9.76zm38.43-15.1h5.8c2.87 0 4.3 1 4.3 2.76v.11c0 1.78-1.38 2.76-4.25 2.76h-5.85zm11.14 16.94c0 1.72-1.5 2.93-4.42 2.93h-6.72v-6h6.77c2.93 0 4.37 1.2 4.37 2.92zM28 137.5h-2.52l-1.87 10.75H11.89l1.87-10.75H11.2l-1.88 10.75H2.21v2.49h6.7L6.67 164H0v2.49h6.21l-1.87 11.05H6.9l1.87-11.08h11.72l-1.87 11.08h2.56l1.87-11.08h7.12V164h-6.65l2.24-13.23h6.61v-2.49h-6.2zM20.9 164H9.18l2.29-13.23h11.72zm33.23-8c-10-2-11.89-4.61-11.89-8.4v-.11c0-3.93 3.94-8 10.53-8a19.83 19.83 0 0112 4.15l.56.43L67 142l-.58-.44A22.1 22.1 0 0052.88 137c-7.45 0-13.29 4.65-13.29 10.59v.11c0 5.8 3.86 8.85 13.75 10.85 10.14 2.06 12.06 4.6 12.06 8.56v.11c0 4.93-4.58 8.38-11.14 8.38a19.76 19.76 0 01-14-5.75l-.51-.5-1.91 1.91.54.51a22.59 22.59 0 0015.77 6.37c8.18 0 13.9-4.51 13.9-11V167c0-5.89-3.91-9-13.92-11zm31.56-18.5h2.59v40.04h-2.59zM144 147.87a12.11 12.11 0 00-10.36 5.64v-5H131v29h2.6v-16c0-6.25 4.5-11.14 10.25-11.14 6.24 0 9.82 4 9.82 10.92v16.21h2.59v-16.28c-.01-8.22-4.72-13.35-12.26-13.35zm-34.54-.08a15.15 15.15 0 1013.77 21.42l.47-1h-2.8l-.2.39a12.58 12.58 0 01-23.77-4.38h27.63v-1.27a15.17 15.17 0 00-15.1-15.16zm-12.53 13.88a12.59 12.59 0 0125.06 0zm112.84-13.88a15.15 15.15 0 1013.78 21.42l.46-1h-2.8l-.2.39a12.58 12.58 0 01-23.77-4.38h27.63v-1.27a15.17 15.17 0 00-15.1-15.16zm-12.53 13.88a12.59 12.59 0 0125.06 0zm-21.09-11.34a12.55 12.55 0 0111.25 7l.2.4h2.79l-.47-1a15.15 15.15 0 100 12.54l.47-1h-2.79l-.2.39a12.6 12.6 0 11-11.25-18.26zm-101.34-1.8h2.6v29.01h-2.6zm1.3-11.53a1.87 1.87 0 101.89 1.82 1.87 1.87 0 00-1.89-1.82z"/></g></g></svg>